<svg width="404" height="469" viewBox="0 0 404 469" fill="none" xmlns="http://www.w3.org/2000/svg">
<path d="M369.5 465C369.5 469.114 365.947 472.5 361.5 472.5C357.053 472.5 353.5 469.114 353.5 465C353.5 460.886 357.053 457.5 361.5 457.5C365.947 457.5 369.5 460.886 369.5 465Z" stroke="white"/>
<circle cx="86" cy="379" r="4.5" stroke="white"/>
<path d="M370.363 327.584C369.824 342.141 339.094 358.314 302.973 364.245C285.541 384.372 253.05 416.216 262.539 382.575C274.399 340.523 273.321 354.54 265.234 337.288C257.147 320.037 246.904 287.689 265.234 301.167C283.564 314.645 302.973 301.167 310.52 296.315C318.068 291.463 306.207 269.359 315.912 252.646C325.616 235.934 331.546 256.42 336.937 255.881C342.329 255.342 359.58 212.212 377.911 224.612C396.241 237.012 359.58 248.334 355.807 264.507C352.033 280.681 373.058 253.186 375.215 275.29C377.371 297.394 359.58 286.611 345.024 301.167C330.468 315.724 352.572 316.802 354.189 315.724C355.807 314.645 370.902 313.028 370.363 327.584Z" fill="#F6F6F6"/>
<path d="M285.721 361.01C285.182 357.775 355.807 237.551 370.363 232.16" stroke="#2F302E" stroke-linecap="round"/>
<path d="M323.459 256.42C323.459 267.922 323.891 291.14 325.616 292.002" stroke="#2F302E" stroke-linecap="round"/>
<path d="M369.285 279.063C356.885 281.579 331.546 286.611 329.39 286.611" stroke="#2F302E" stroke-linecap="round"/>
<path d="M362.276 328.663C359.041 330.28 300.816 334.593 298.121 337.828" stroke="#2F302E" stroke-linecap="round"/>
<path d="M262 306.559C273.68 318.958 295.964 344.836 291.651 349.149" stroke="#2F302E" stroke-linecap="round"/>
<rect x="197.289" y="1" width="205.375" height="110.817" stroke="#F6F6F6" stroke-width="2"/>
<rect x="196.289" width="207.375" height="20.8679" fill="#2F302E"/>
<rect x="242.589" y="37.1709" width="146.075" height="7.17334" fill="white"/>
<rect x="210.635" y="56.0825" width="176.073" height="4.56485" fill="white"/>
<rect x="210.635" y="72.3855" width="176.073" height="4.56485" fill="white"/>
<rect x="210.635" y="91.2971" width="176.073" height="4.56485" fill="white"/>
<circle cx="212.266" cy="10.76" r="4.23879" fill="white"/>
<circle cx="226.612" cy="10.76" r="4.23879" fill="white"/>
<circle cx="240.959" cy="10.76" r="4.23879" fill="white"/>
<rect y="226.286" width="240.938" height="131.076" fill="white"/>
<rect y="226.286" width="240.938" height="24.2454" fill="#2F302E"/>
<rect x="53.7944" y="269.473" width="169.718" height="8.33434" fill="#2F302E"/>
<rect x="16.6687" y="291.446" width="204.57" height="5.30367" fill="#2F302E"/>
<rect x="16.6687" y="310.387" width="204.57" height="5.30367" fill="#2F302E"/>
<rect x="16.6687" y="332.36" width="204.57" height="5.30367" fill="#2F302E"/>
<circle cx="18.5628" cy="238.788" r="4.92484" fill="white"/>
<circle cx="35.2316" cy="238.788" r="4.92484" fill="white"/>
<circle cx="51.9002" cy="238.788" r="4.92484" fill="white"/>
<path d="M100.133 239.531C101.954 253.983 133.99 267.384 170.493 270.106C189.632 288.617 224.804 317.472 212.386 284.799C196.864 243.957 199.174 257.824 205.708 239.927C212.242 222.029 219.593 188.904 202.523 203.946C185.452 218.988 164.931 207.274 156.985 203.107C149.039 198.939 158.904 175.875 147.764 160.083C136.624 144.291 132.523 165.221 127.105 165.16C121.688 165.098 100.7 123.658 83.5345 137.625C66.3692 151.593 103.885 159.638 109.07 175.416C114.256 191.194 90.8873 165.66 90.6884 187.868C90.4895 210.076 107.26 197.766 123.044 210.982C138.827 224.198 116.904 227.222 115.198 226.29C113.492 225.359 98.3124 225.079 100.133 239.531Z" fill="#F6F6F6"/>
<path d="M187.393 265.362C187.645 262.092 106.693 148.565 91.7183 144.478" stroke="#2CD5C4" stroke-linecap="round"/>
<path d="M140.578 164.508C141.593 175.964 143.21 199.13 141.568 200.142" stroke="#2CD5C4" stroke-linecap="round"/>
<path d="M96.9284 191.104C109.502 192.516 135.185 195.294 137.333 195.104" stroke="#2CD5C4" stroke-linecap="round"/>
<path d="M108.283 239.892C111.648 241.218 170.027 240.379 172.997 243.364" stroke="#2CD5C4" stroke-linecap="round"/>
<path d="M206.22 209.031C195.678 222.413 175.763 250.155 180.44 254.071" stroke="#2CD5C4" stroke-linecap="round"/>
<path d="M105.893 180.309C103.373 190.309 121.05 207.396 144.423 218.59C152.278 235.727 168.044 263.813 168.267 239.068C168.547 208.136 166.499 217.876 175.417 207.755C184.335 197.634 197.712 177.681 182.581 183.206C167.45 188.731 156.933 175.721 152.766 170.927C148.598 166.132 161.043 153.462 157.762 140.179C154.482 126.896 146.388 139.643 142.831 138.207C139.274 136.772 136.103 104.038 121.186 108.83C106.269 113.621 128.939 128.587 128.296 140.327C127.653 152.068 118.817 129.211 112.967 143.806C107.118 158.401 121.348 154.601 128.353 167.381C135.359 180.161 120.123 176.51 119.238 175.456C118.352 174.403 108.414 170.31 105.893 180.309Z" fill="#F6F6F6"/>
<path d="M156.789 219.814C157.797 217.722 133.642 122.007 124.819 115.456" stroke="#2CD5C4" stroke-linecap="round"/>
<path d="M151.884 141.247C149.603 149.063 144.705 164.758 143.362 165.002" stroke="#2CD5C4" stroke-linecap="round"/>
<path d="M116.249 147.547C124.177 151.716 140.4 160.161 141.866 160.589" stroke="#2CD5C4" stroke-linecap="round"/>
<path d="M111.175 182.646C113.053 184.387 151.769 198.866 152.96 201.599" stroke="#2CD5C4" stroke-linecap="round"/>
<path d="M183.71 187.512C173.312 193.622 153.035 206.79 155.111 210.577" stroke="#2CD5C4" stroke-linecap="round"/>
<rect x="127.816" y="77.6025" width="163.03" height="324.105" rx="15" fill="#1E3C39"/>
<rect x="135.579" y="88.7146" width="146.533" height="300.954" rx="15" fill="#F4F4F4"/>
<path d="M184.1 85.9365H233.592V92.0487C233.592 94.8101 231.353 97.0487 228.592 97.0487H189.1C186.339 97.0487 184.1 94.8101 184.1 92.0487V85.9365Z" fill="#1E3C39"/>
<rect x="155.958" y="316.514" width="106.746" height="24.0763" rx="5" fill="#2F302E"/>
<rect x="158.869" y="163.722" width="40.7576" height="7.4081" fill="#2F302E"/>
<rect x="158.869" y="178.538" width="100.924" height="4.63007" fill="#0EB5A4"/>
<rect x="158.869" y="230.395" width="40.7576" height="7.4081" fill="#2F302E"/>
<rect x="158.869" y="245.211" width="100.924" height="4.63007" fill="#0EB5A4"/>
<rect x="158.869" y="197.058" width="40.7576" height="7.4081" fill="#2F302E"/>
<rect x="158.869" y="211.874" width="100.924" height="4.63007" fill="#0EB5A4"/>
<rect x="158.869" y="263.731" width="40.7576" height="7.4081" fill="#2F302E"/>
<rect x="158.869" y="278.547" width="100.924" height="4.63007" fill="#0EB5A4"/>
<ellipse cx="208.846" cy="119.736" rx="5.33731" ry="5.09307" fill="#2F302E"/>
<path d="M220.976 136.404C220.976 134.071 219.698 131.834 217.423 130.184C215.148 128.534 212.063 127.607 208.846 127.607C205.629 127.607 202.543 128.534 200.269 130.184C197.994 131.834 196.716 134.071 196.716 136.404L208.846 136.404H220.976Z" fill="#2F302E"/>
<g opacity="0.25" filter="url(#filter0_f_75_2028)">
<ellipse cx="208.5" cy="452" rx="100.5" ry="21" fill="#1E3C39"/>
</g>
<path d="M103.5 16.5C103.5 19.8521 101.001 22.5 98 22.5C94.9994 22.5 92.5 19.8521 92.5 16.5C92.5 13.1479 94.9994 10.5 98 10.5C101.001 10.5 103.5 13.1479 103.5 16.5Z" stroke="white"/>
<path d="M378.473 178.718L367.929 167.058L383.299 163.756L378.473 178.718Z" stroke="white"/>
<defs>
<filter id="filter0_f_75_2028" x="58" y="381" width="301" height="142" filterUnits="userSpaceOnUse" color-interpolation-filters="sRGB">
<feFlood flood-opacity="0" result="BackgroundImageFix"/>
<feBlend mode="normal" in="SourceGraphic" in2="BackgroundImageFix" result="shape"/>
<feGaussianBlur stdDeviation="25" result="effect1_foregroundBlur_75_2028"/>
</filter>
</defs>
</svg>
