<svg width="393" height="495" viewBox="0 0 393 495" fill="none" xmlns="http://www.w3.org/2000/svg">
<path d="M56.5881 300.381C60.7633 312.631 91.0433 318.548 123.296 314.373C143.269 327.05 179.048 345.854 162.385 319.648C141.555 286.891 146.051 298.544 148.529 281.798C151.006 265.053 151.464 234.91 139.306 251.06C127.149 267.21 107.191 260.695 99.5297 258.493C91.8679 256.291 96.3177 234.453 83.7926 222.708C71.2675 210.963 71.4514 229.911 66.7259 230.829C62.0004 231.747 36.3077 199.448 23.8749 214.68C11.4421 229.912 45.5299 230.187 52.8708 242.987C60.2116 255.787 35.2991 237.757 39.1074 257.118C42.9158 276.479 55.3027 262.761 71.4063 271.431C87.5099 280.102 68.9751 286.663 67.3234 286.159C65.6718 285.654 52.4129 288.132 56.5881 300.381Z" fill="#F6F6F6"/>
<path d="M137.151 307.215C136.784 304.325 45.9885 220.048 32.2249 219.176" stroke="#2F302E" stroke-linecap="round"/>
<path d="M78.3331 227.846C81.2696 237.634 86.8304 257.502 85.5826 258.677" stroke="#2F302E" stroke-linecap="round"/>
<path d="M45.1175 258.815C56.3119 257.79 79.1594 255.603 80.9946 255.052" stroke="#2F302E" stroke-linecap="round"/>
<path d="M63.7451 299.234C66.9107 299.784 117.561 288.589 120.68 290.653" stroke="#2F302E" stroke-linecap="round"/>
<path d="M143.435 254.822C136.661 268.356 124.305 296.067 129.076 298.636" stroke="#2F302E" stroke-linecap="round"/>
<g opacity="0.25" filter="url(#filter0_f_75_2177)">
<ellipse cx="211.5" cy="409.5" rx="89.5" ry="18.5" fill="#1E3C39"/>
</g>
<rect x="127" y="6" width="177" height="352" rx="15" fill="#1E3C39"/>
<rect x="136" y="18" width="160" height="327" rx="15" fill="#F4F4F4"/>
<path d="M189 15H243V22C243 24.7614 240.761 27 238 27H194C191.239 27 189 24.7614 189 22V15Z" fill="#1E3C39"/>
<rect x="158" y="289" width="116" height="26" rx="5" fill="#2F302E"/>
<ellipse cx="215.5" cy="44" rx="5.5" ry="6" fill="#2F302E"/>
<path d="M229 62.5C229 59.9804 227.578 57.5641 225.046 55.7825C222.514 54.0009 219.08 53 215.5 53C211.92 53 208.486 54.0009 205.954 55.7825C203.422 57.5641 202 59.9804 202 62.5L215.5 62.5H229Z" fill="#2F302E"/>
<g filter="url(#filter1_d_75_2177)">
<rect x="90" y="55" width="115" height="129" rx="10" fill="white"/>
</g>
<path d="M125.76 115.06H122.46L122.94 109.42H134.58C137.04 109.42 139.02 107.44 139.02 105.04C139.02 102.64 137.04 100.6 134.58 100.6H118.14C115.8 100.6 114 102.52 113.82 104.86L112.74 119.2C112.5 122.2 114.48 124.24 117.12 124.24H125.22C128.22 124.24 130.5 126.04 130.5 128.74C130.5 131.44 128.28 133.48 124.92 133.48C121.92 133.48 119.1 130.78 119.1 130.78C118.08 129.82 116.82 129.16 115.44 129.16C112.86 129.16 110.82 131.32 110.82 133.84C110.82 135.28 111.18 136 112.44 137.5C114.84 140.62 119.58 142.6 124.92 142.6C132.84 142.6 139.86 137.92 139.86 128.8C139.86 119.8 133.44 115.06 125.76 115.06ZM178.746 118.66L169.446 118.6C166.866 118.6 164.826 120.46 164.826 123.04C164.826 125.68 166.866 127.48 169.446 127.54L174.006 127.6V133.24C172.806 133.78 171.306 134.2 167.586 134.2C159.366 134.2 154.386 128.8 154.386 121.3C154.386 113.8 158.706 108.4 166.326 108.4C170.886 108.4 172.686 110.32 175.386 112.12C176.106 112.6 177.006 113.02 178.026 113.02C180.246 113.02 182.226 111.28 182.226 108.82C182.226 107.86 181.806 106.9 181.026 105.94C178.446 102.76 173.886 100 166.446 100C152.766 100 144.846 108.94 144.846 121.24C144.846 133.6 153.426 142.6 166.506 142.6C175.926 142.6 183.666 139.9 183.666 134.92V123.34C183.666 120.22 181.446 118.66 178.746 118.66Z" fill="#2CD5C4"/>
<g filter="url(#filter2_d_75_2177)">
<rect x="237" y="84" width="116" height="129" rx="10" fill="white"/>
</g>
<g filter="url(#filter3_d_75_2177)">
<rect x="200" y="245" width="116" height="129" rx="10" fill="white"/>
</g>
<path d="M111.559 251.392C104.467 254.262 112.825 293.114 117.891 312.181C134.777 314.502 169.604 310.07 172.77 307.748C175.936 305.426 162.85 256.035 156.306 246.748C149.763 237.461 120.424 247.804 111.559 251.392Z" fill="#E0E3E3" stroke="black" stroke-width="2" stroke-linecap="round"/>
<path d="M229.338 194.191C227.016 193.136 220.895 207.489 220.895 209.811C222.513 212.203 225.749 217.156 225.749 217.831C233.981 207.278 254.033 205.378 252.978 197.991C251.922 190.603 233.559 200.734 230.393 200.946C227.227 201.157 231.659 195.247 229.338 194.191Z" fill="white" stroke="black" stroke-width="2"/>
<path d="M44.649 438.402L62.1681 436.714C64.9824 441.217 70.3577 450.518 69.3445 451.7C68.0781 453.177 62.8013 481.461 62.1681 480.828C61.6615 480.321 50.2776 452.333 44.649 438.402Z" fill="white" stroke="black"/>
<path d="M126.967 475.34C123.027 479.913 114.978 489.102 114.303 489.271L157.362 506.79L142.376 481.883L126.967 475.34Z" fill="white" stroke="black"/>
<path d="M47.1819 439.88L56.2581 461.831" stroke="black"/>
<path d="M22.0643 234.928C25.8636 233.451 35.1508 244.215 35.3619 245.482L32.6179 255.824C7.50027 244.849 4.96741 253.081 1.37918 246.115C-2.20906 239.15 20.7979 242.105 22.9086 241.049C25.0193 239.994 18.265 236.406 22.0643 234.928Z" fill="white" stroke="black" stroke-width="2"/>
<path d="M112.403 250.97C111.898 251.523 111.359 252.111 110.794 252.727C107.909 258.455 109.815 275.192 111.348 283.897C106.353 289.174 94.8421 299.727 88.7632 299.727C81.1646 299.727 28.3964 256.457 26.4968 256.035C24.9771 255.698 31.4922 246.748 34.9397 242.316C51.4737 253.995 84.8795 277.396 86.2303 277.565C87.4975 277.723 102.236 262.045 110.794 252.727C111.22 251.88 111.751 251.274 112.403 250.97Z" fill="white" stroke="black" stroke-width="2" stroke-linecap="round"/>
<path d="M107.127 379.724L117.891 311.759C133.595 315.305 162.005 310.281 174.248 307.326C178.68 328.926 187.883 375.334 189.234 388.167C190.585 401 159.121 457.539 143.22 484.205L125.068 476.817C136.255 451.348 159.093 399.691 160.95 396.821C162.807 393.95 154.125 362.275 149.552 346.797C144.486 357.772 134.144 380.906 133.299 385.634C132.455 390.362 90.0296 434.321 68.9224 455.71L60.4795 435.658L107.127 379.724Z" fill="#1E3C39" stroke="black" stroke-width="2" stroke-linecap="round"/>
<path d="M125.49 246.326C126.165 251.223 133.37 255.121 136.888 256.458C141.954 257.64 138.998 240.768 136.888 232.184L124.434 234.295C124.505 236.265 124.814 241.429 125.49 246.326Z" fill="white" stroke="black" stroke-width="2" stroke-linecap="round"/>
<path d="M116.836 215.721C113.29 234.464 125.912 238.024 132.666 237.461C143.22 233.873 135.832 210.866 134.355 210.444C133.173 210.106 130.063 212.414 128.656 213.61C121.226 213.272 117.68 214.876 116.836 215.721Z" fill="white" stroke="black" stroke-width="2" stroke-linecap="round"/>
<path d="M140.898 217.409C140.265 214.665 137.943 215.721 137.099 215.932C137.31 218.746 137.901 224.375 138.576 224.375C139.421 224.375 141.531 220.153 140.898 217.409Z" fill="white" stroke="black" stroke-width="2" stroke-linecap="round"/>
<path d="M121.479 234.717C116.062 234.154 106.282 229.567 110.504 215.721C115.781 198.413 127.39 190.181 136.043 201.579C142.967 210.697 131.33 214.243 124.646 214.876C121.55 213.117 115.569 212.217 116.414 222.686C116.989 229.815 120.989 233.825 124.749 235.836L129.5 237.461C128.221 237.282 126.511 236.778 124.749 235.836L121.479 234.717Z" fill="#2CD5C4" stroke="black" stroke-width="2" stroke-linecap="round"/>
<path d="M111.348 227.752C110.504 224.037 114.233 224.656 116.203 225.43C117.385 229.82 119.932 232.888 121.057 233.873C118.173 233.38 112.192 231.467 111.348 227.752Z" fill="white" stroke="black" stroke-width="2" stroke-linecap="round"/>
<path d="M117.891 488.848L139.421 497.925" stroke="black"/>
<path d="M155.009 245.039C154.73 244.902 154.459 244.768 154.196 244.637C154.445 244.637 154.717 244.778 155.009 245.039C164.774 249.845 183.488 258.357 186.279 256.88C189.149 255.36 210.271 222.053 220.472 205.589C225.186 208.192 234.234 213.99 232.715 216.354C230.815 219.309 197.255 278.831 192.4 280.309C187.545 281.786 167.282 276.298 166.227 273.343C165.249 270.606 158.659 248.316 155.009 245.039Z" fill="white"/>
<path d="M154.196 244.637C163.694 249.351 183.408 258.399 186.279 256.88C189.149 255.36 210.271 222.053 220.472 205.589C225.186 208.192 234.234 213.99 232.715 216.354C230.815 219.309 197.255 278.831 192.4 280.309C187.545 281.786 167.282 276.298 166.227 273.343C165.171 270.388 157.573 244.637 154.196 244.637Z" stroke="black" stroke-width="2"/>
<path d="M134.988 300.572C137.521 297.828 137.521 260.257 137.31 257.935L139.843 256.88C144.697 261.734 146.386 305.215 145.12 304.582C144.106 304.076 139.491 308.733 137.31 311.125C137.985 309.268 136.043 303.316 134.988 300.572Z" fill="#112173" stroke="black" stroke-width="2"/>
<circle cx="317" cy="404" r="6.5" stroke="white"/>
<circle cx="72" cy="327" r="3.5" stroke="white"/>
<circle cx="82.5" cy="5.5" r="5" stroke="white"/>
<path d="M349.402 55.5867L340.163 45.3706L353.63 42.4776L349.402 55.5867Z" stroke="white"/>
<path d="M260.436 139.372H255.76V139.4C254.528 139.4 253.52 140.128 253.52 141.612V157.292C253.52 158.356 254.22 159 255.564 159H260.436C266.708 159 270.684 154.604 270.684 149.2C270.684 143.712 266.736 139.372 260.436 139.372ZM260.632 154.884H258V143.46H260.464C263.908 143.46 266.036 145.98 266.036 149.088C266.036 152.112 264.132 154.884 260.632 154.884ZM275.483 142.424C276.743 142.424 277.779 141.388 277.779 140.1C277.779 138.84 276.743 137.804 275.483 137.804C274.195 137.804 273.159 138.84 273.159 140.1C273.159 141.388 274.195 142.424 275.483 142.424ZM277.499 145.952C277.499 144.832 276.603 143.936 275.483 143.936C274.391 143.936 273.495 144.832 273.495 145.952V157.908C273.495 158.636 273.859 159 274.587 159H276.435C277.135 159 277.499 158.636 277.499 157.908V145.952ZM293.612 143.936C292.716 143.936 291.96 144.524 291.708 145.336C290.56 144.356 289.188 143.936 287.704 143.936C283.672 143.936 280.228 147.352 280.228 151.58C280.228 155.864 283.672 159.28 287.704 159.28C288.992 159.28 289.832 158.944 290.336 158.692C290.728 158.496 291.036 158.216 291.232 158.216C291.456 158.216 291.512 158.384 291.512 158.58C291.512 160.036 289.86 161.576 287.704 161.576C285.24 161.576 284.008 160.148 282.552 160.148C281.516 160.148 280.676 160.96 280.676 162.024C280.676 164.152 284.26 165.524 287.452 165.524C292.604 165.524 295.628 162.052 295.628 157.908V145.952C295.628 144.832 294.732 143.936 293.612 143.936ZM287.872 155.36C285.828 155.36 284.12 153.708 284.12 151.58C284.12 149.508 285.828 147.856 287.872 147.856C289.972 147.856 291.624 149.508 291.624 151.58C291.624 153.708 289.972 155.36 287.872 155.36ZM301.302 142.424C302.562 142.424 303.598 141.388 303.598 140.1C303.598 138.84 302.562 137.804 301.302 137.804C300.014 137.804 298.978 138.84 298.978 140.1C298.978 141.388 300.014 142.424 301.302 142.424ZM303.318 145.952C303.318 144.832 302.422 143.936 301.302 143.936C300.21 143.936 299.314 144.832 299.314 145.952V157.908C299.314 158.636 299.678 159 300.406 159H302.254C302.954 159 303.318 158.636 303.318 157.908V145.952ZM313.971 154.996H313.187C312.039 154.996 311.423 154.632 311.423 153.204L311.451 148.08H314.027C315.119 148.08 315.959 147.212 315.959 146.12C315.959 145.084 315.119 144.216 314.027 144.216H311.479L311.507 142.088C311.507 140.912 310.611 140.128 309.547 140.128C308.399 140.128 307.503 140.912 307.503 142.088V144.216H307.139C306.047 144.216 305.207 145.084 305.207 146.12C305.207 147.212 306.047 148.08 307.139 148.08H307.503V153.484C307.503 155.612 307.755 156.984 308.539 157.852C309.267 158.664 310.303 159 312.291 159H313.971C315.091 159 315.987 158.104 315.987 156.984C315.987 155.892 315.091 154.996 313.971 154.996ZM330.399 143.936C329.503 143.936 328.747 144.524 328.495 145.336C327.347 144.356 325.975 143.936 324.491 143.936C320.459 143.936 317.015 147.352 317.015 151.58C317.015 155.864 320.459 159.28 324.491 159.28C325.919 159.28 327.263 158.804 328.411 157.712V157.908C328.411 158.636 328.775 159 329.503 159H331.351C332.051 159 332.415 158.636 332.415 157.908V145.952C332.415 144.832 331.519 143.936 330.399 143.936ZM324.659 155.36C322.615 155.36 320.907 153.708 320.907 151.58C320.907 149.508 322.615 147.856 324.659 147.856C326.759 147.856 328.411 149.508 328.411 151.58C328.411 153.708 326.759 155.36 324.659 155.36ZM335.849 157.908C335.849 158.636 336.213 159 336.941 159H338.789C339.489 159 339.853 158.636 339.853 157.908V139.848C339.853 138.728 338.957 137.832 337.837 137.832C336.745 137.832 335.849 138.728 335.849 139.848V157.908Z" fill="#2F302E"/>
<path d="M230.14 303.68H218.156C216.952 303.68 216 304.576 216 305.78C216 306.984 216.952 307.88 218.156 307.88H221.88V322.048C221.88 322.636 222.244 323 222.832 323H225.464C226.024 323 226.388 322.636 226.388 322.048V307.88H230.14C231.344 307.88 232.296 306.984 232.296 305.78C232.296 304.576 231.344 303.68 230.14 303.68ZM245.21 307.936C244.314 307.936 243.558 308.524 243.306 309.336C242.158 308.356 240.786 307.936 239.302 307.936C235.27 307.936 231.826 311.352 231.826 315.58C231.826 319.864 235.27 323.28 239.302 323.28C240.73 323.28 242.074 322.804 243.222 321.712V321.908C243.222 322.636 243.586 323 244.314 323H246.162C246.862 323 247.226 322.636 247.226 321.908V309.952C247.226 308.832 246.33 307.936 245.21 307.936ZM239.47 319.36C237.426 319.36 235.718 317.708 235.718 315.58C235.718 313.508 237.426 311.856 239.47 311.856C241.57 311.856 243.222 313.508 243.222 315.58C243.222 317.708 241.57 319.36 239.47 319.36ZM250.66 321.908C250.66 322.636 251.024 323 251.752 323H253.6C254.3 323 254.664 322.636 254.664 321.908V303.848C254.664 302.728 253.768 301.832 252.648 301.832C251.556 301.832 250.66 302.728 250.66 303.848V321.908ZM272.413 315.02C272.413 311.52 268.997 307.936 264.853 307.936C260.429 307.936 257.153 311.408 257.153 315.664C257.153 320.144 260.513 323.28 265.301 323.28C266.869 323.28 268.941 322.972 270.229 322.244C271.041 321.796 271.461 321.208 271.461 320.452C271.461 319.388 270.621 318.632 269.669 318.632C269.249 318.632 268.885 318.772 268.549 318.968C267.877 319.36 266.813 319.752 265.497 319.752C263.425 319.752 261.717 318.772 261.213 317.26H270.789C271.629 317.26 272.413 316.616 272.413 315.02ZM261.129 314.376C261.465 312.892 262.949 311.632 264.797 311.632C266.645 311.632 268.101 312.892 268.437 314.376H261.129ZM283.075 307.936C281.143 307.936 279.743 308.692 278.847 309.7C278.735 308.692 277.867 307.936 276.859 307.936C275.767 307.936 274.871 308.832 274.871 309.952V322.216C274.871 322.72 275.151 323 275.655 323H278.091C278.595 323 278.875 322.72 278.875 322.216V314.684C278.875 312.836 280.079 311.772 281.675 311.772C283.299 311.772 284.447 312.836 284.447 314.684V322.216C284.447 322.72 284.727 323 285.231 323H287.667C288.171 323 288.451 322.72 288.451 322.216V313.508C288.451 310.316 286.519 307.936 283.075 307.936ZM298.908 318.996H298.124C296.976 318.996 296.36 318.632 296.36 317.204L296.388 312.08H298.964C300.056 312.08 300.896 311.212 300.896 310.12C300.896 309.084 300.056 308.216 298.964 308.216H296.416L296.444 306.088C296.444 304.912 295.548 304.128 294.484 304.128C293.336 304.128 292.44 304.912 292.44 306.088V308.216H292.076C290.984 308.216 290.144 309.084 290.144 310.12C290.144 311.212 290.984 312.08 292.076 312.08H292.44V317.484C292.44 319.612 292.692 320.984 293.476 321.852C294.204 322.664 295.24 323 297.228 323H298.908C300.028 323 300.924 322.104 300.924 320.984C300.924 319.892 300.028 318.996 298.908 318.996Z" fill="#2F302E"/>
<defs>
<filter id="filter0_f_75_2177" x="72" y="341" width="279" height="137" filterUnits="userSpaceOnUse" color-interpolation-filters="sRGB">
<feFlood flood-opacity="0" result="BackgroundImageFix"/>
<feBlend mode="normal" in="SourceGraphic" in2="BackgroundImageFix" result="shape"/>
<feGaussianBlur stdDeviation="25" result="effect1_foregroundBlur_75_2177"/>
</filter>
<filter id="filter1_d_75_2177" x="50" y="25" width="195" height="209" filterUnits="userSpaceOnUse" color-interpolation-filters="sRGB">
<feFlood flood-opacity="0" result="BackgroundImageFix"/>
<feColorMatrix in="SourceAlpha" type="matrix" values="0 0 0 0 0 0 0 0 0 0 0 0 0 0 0 0 0 0 127 0" result="hardAlpha"/>
<feOffset dy="10"/>
<feGaussianBlur stdDeviation="20"/>
<feComposite in2="hardAlpha" operator="out"/>
<feColorMatrix type="matrix" values="0 0 0 0 0 0 0 0 0 0 0 0 0 0 0 0 0 0 0.1 0"/>
<feBlend mode="normal" in2="BackgroundImageFix" result="effect1_dropShadow_75_2177"/>
<feBlend mode="normal" in="SourceGraphic" in2="effect1_dropShadow_75_2177" result="shape"/>
</filter>
<filter id="filter2_d_75_2177" x="197" y="54" width="196" height="209" filterUnits="userSpaceOnUse" color-interpolation-filters="sRGB">
<feFlood flood-opacity="0" result="BackgroundImageFix"/>
<feColorMatrix in="SourceAlpha" type="matrix" values="0 0 0 0 0 0 0 0 0 0 0 0 0 0 0 0 0 0 127 0" result="hardAlpha"/>
<feOffset dy="10"/>
<feGaussianBlur stdDeviation="20"/>
<feComposite in2="hardAlpha" operator="out"/>
<feColorMatrix type="matrix" values="0 0 0 0 0 0 0 0 0 0 0 0 0 0 0 0 0 0 0.1 0"/>
<feBlend mode="normal" in2="BackgroundImageFix" result="effect1_dropShadow_75_2177"/>
<feBlend mode="normal" in="SourceGraphic" in2="effect1_dropShadow_75_2177" result="shape"/>
</filter>
<filter id="filter3_d_75_2177" x="160" y="215" width="196" height="209" filterUnits="userSpaceOnUse" color-interpolation-filters="sRGB">
<feFlood flood-opacity="0" result="BackgroundImageFix"/>
<feColorMatrix in="SourceAlpha" type="matrix" values="0 0 0 0 0 0 0 0 0 0 0 0 0 0 0 0 0 0 127 0" result="hardAlpha"/>
<feOffset dy="10"/>
<feGaussianBlur stdDeviation="20"/>
<feComposite in2="hardAlpha" operator="out"/>
<feColorMatrix type="matrix" values="0 0 0 0 0 0 0 0 0 0 0 0 0 0 0 0 0 0 0.1 0"/>
<feBlend mode="normal" in2="BackgroundImageFix" result="effect1_dropShadow_75_2177"/>
<feBlend mode="normal" in="SourceGraphic" in2="effect1_dropShadow_75_2177" result="shape"/>
</filter>
</defs>
</svg>
