<svg width="100" height="100" viewBox="0 0 100 100" fill="none" xmlns="http://www.w3.org/2000/svg">
<path d="M66.2876 50.5125L100 71.825V28.3L66.2876 50.5125Z" fill="#2CD5C4"/>
<path d="M0 28.3V71.825L33.7125 50.5125L0 28.3Z" fill="#2CD5C4"/>
<path d="M93.75 15.625H6.25C3.13125 15.625 0.65625 17.95 0.1875 20.9438L50 53.7625L99.8125 20.9438C99.3437 17.95 96.8687 15.625 93.75 15.625Z" fill="#2CD5C4"/>
<path d="M60.5625 54.2875L51.7187 60.1125C51.1937 60.4562 50.6 60.625 50 60.625C49.4 60.625 48.8062 60.4562 48.2812 60.1125L39.4375 54.2812L0.199951 79.1C0.681201 82.0688 3.1437 84.375 6.24995 84.375H93.75C96.8562 84.375 99.3187 82.0688 99.8 79.1L60.5625 54.2875Z" fill="#2CD5C4"/>
</svg>
