<svg width="28" height="35" viewBox="0 0 28 35" fill="none" xmlns="http://www.w3.org/2000/svg">
<path d="M16.3333 11.4568V8.59268C16.3333 7.83306 16.0875 7.10455 15.6499 6.56741C15.2123 6.03027 14.6188 5.72852 14 5.72852H5.83333C5.21449 5.72852 4.621 6.03027 4.18342 6.56741C3.74583 7.10455 3.5 7.83306 3.5 8.59268V25.7777C3.5 26.5373 3.74583 27.2658 4.18342 27.8029C4.621 28.3401 5.21449 28.6418 5.83333 28.6418H14C14.6188 28.6418 15.2123 28.3401 15.6499 27.8029C16.0875 27.2658 16.3333 26.5373 16.3333 25.7777V22.9135" stroke="#2C3E50" stroke-width="2" stroke-linecap="round" stroke-linejoin="round"/>
<path d="M21 21.4812L24.5 17.1849M8.16666 17.1849H24.5L21 12.8887L8.16666 17.1849Z" stroke="#2C3E50" stroke-width="2" stroke-linecap="round" stroke-linejoin="round"/>
</svg>
