<svg width="150" height="150" viewBox="0 0 150 150" fill="none" xmlns="http://www.w3.org/2000/svg">
<path d="M75.0001 0.000305869C116.421 0.000305869 150 33.579 150 75.0001C150 116.421 116.421 150 75.0001 150C33.579 150 0.00031109 116.421 0.00031109 75.0001C-0.11755 33.6964 33.2698 0.118167 74.5731 0.000305869C74.7154 -0.000101956 74.8578 -0.000101956 75.0001 0.000305869Z" fill="#ED1C24"/>
<path d="M67.2667 42.9859C67.2667 38.6507 70.9515 35 75.5576 35C80.0485 35 83.7333 38.6507 83.7333 42.9859V83.8282C83.7333 88.5056 80.0485 92.1563 75.5576 92.1563C70.9515 92.1563 67.2667 88.5056 67.2667 83.8282V42.9859ZM75.5576 116C80.7394 116 85 111.779 85 106.531C85 101.397 80.7394 97.1761 75.5576 97.1761C70.2606 97.1761 66 101.397 66 106.531C66 111.779 70.2606 116 75.5576 116Z" fill="white"/>
</svg>
