<svg width="186" height="139" viewBox="0 0 186 139" fill="none" xmlns="http://www.w3.org/2000/svg">
<path d="M14.712 21.144L12.408 17.352C13.992 16.296 15.072 14.568 15.072 12.864C15.072 9.576 12.6 7.2 9.168 7.2H4.104C3.048 7.2 2.16 8.064 2.16 9.12V23.184C2.16 23.688 2.472 24 2.976 24H5.232C5.712 24 6.024 23.688 6.024 23.184V18.336H8.28L11.592 23.424C11.952 23.976 12.576 24.144 13.176 24.144C14.304 24.144 15.096 23.352 15.096 22.32C15.096 21.912 14.952 21.528 14.712 21.144ZM9.12 14.928H6.024V10.728H9.12C10.272 10.728 11.208 11.664 11.208 12.816C11.208 13.992 10.272 14.928 9.12 14.928ZM29.8329 17.16C29.8329 14.16 26.9049 11.088 23.3529 11.088C19.5609 11.088 16.7529 14.064 16.7529 17.712C16.7529 21.552 19.6329 24.24 23.7369 24.24C25.0809 24.24 26.8569 23.976 27.9609 23.352C28.6569 22.968 29.0169 22.464 29.0169 21.816C29.0169 20.904 28.2969 20.256 27.4809 20.256C27.1209 20.256 26.8089 20.376 26.5209 20.544C25.9449 20.88 25.0329 21.216 23.9049 21.216C22.1289 21.216 20.6649 20.376 20.2329 19.08H28.4409C29.1609 19.08 29.8329 18.528 29.8329 17.16ZM20.1609 16.608C20.4489 15.336 21.7209 14.256 23.3049 14.256C24.8889 14.256 26.1369 15.336 26.4249 16.608H20.1609ZM36.2835 21.384C37.3155 21.384 37.6515 20.976 37.6515 20.448C37.6515 19.992 37.3635 19.68 36.7875 19.44L34.8435 18.672C32.5875 17.784 31.4835 16.392 31.4835 14.856C31.4835 12.96 33.1395 11.088 36.3795 11.088C38.1075 11.088 39.5955 11.4 40.5315 12.24C40.8195 12.504 40.9875 12.912 40.9875 13.272C40.9875 14.04 40.4115 14.568 39.6675 14.568C38.9475 14.568 38.5155 14.352 37.9395 14.184C37.3635 14.016 36.8115 13.944 36.4275 13.944C35.5875 13.944 35.1795 14.28 35.1795 14.856C35.1795 15.264 35.3955 15.6 36.0435 15.84L38.3235 16.776C40.6755 17.712 41.3235 19.056 41.3235 20.328C41.3235 22.392 39.6675 24.24 36.1875 24.24C34.4355 24.24 32.8755 23.808 31.7955 23.16C31.1955 22.8 30.8835 22.32 30.8835 21.84C30.8835 21.072 31.4595 20.472 32.2035 20.472C32.9235 20.472 33.3075 20.784 34.1235 21.024C34.7475 21.216 35.6355 21.384 36.2835 21.384ZM55.737 17.16C55.737 14.16 52.809 11.088 49.257 11.088C45.465 11.088 42.657 14.064 42.657 17.712C42.657 21.552 45.537 24.24 49.641 24.24C50.985 24.24 52.761 23.976 53.865 23.352C54.561 22.968 54.921 22.464 54.921 21.816C54.921 20.904 54.201 20.256 53.385 20.256C53.025 20.256 52.713 20.376 52.425 20.544C51.849 20.88 50.937 21.216 49.809 21.216C48.033 21.216 46.569 20.376 46.137 19.08H54.345C55.065 19.08 55.737 18.528 55.737 17.16ZM46.065 16.608C46.353 15.336 47.625 14.256 49.209 14.256C50.793 14.256 52.041 15.336 52.329 16.608H46.065ZM63.7956 20.568H63.1236C62.1396 20.568 61.6116 20.256 61.6116 19.032L61.6356 14.64H63.8436C64.7796 14.64 65.4996 13.896 65.4996 12.96C65.4996 12.072 64.7796 11.328 63.8436 11.328H61.6596L61.6836 9.504C61.6836 8.496 60.9156 7.824 60.0036 7.824C59.0196 7.824 58.2516 8.496 58.2516 9.504V11.328H57.9396C57.0036 11.328 56.2836 12.072 56.2836 12.96C56.2836 13.896 57.0036 14.64 57.9396 14.64H58.2516V19.272C58.2516 21.096 58.4676 22.272 59.1396 23.016C59.7636 23.712 60.6516 24 62.3556 24H63.7956C64.7556 24 65.5236 23.232 65.5236 22.272C65.5236 21.336 64.7556 20.568 63.7956 20.568ZM78.9234 11.088C75.2994 11.088 72.3474 13.992 72.3474 17.88V27.792C72.3474 28.8 73.1154 29.472 74.0754 29.472C75.0114 29.472 75.7794 28.8 75.7794 27.792V23.184C76.7154 23.904 77.7714 24.24 78.9234 24.24C82.5474 24.24 85.4754 21.312 85.4754 17.688C85.4754 14.016 82.5474 11.088 78.9234 11.088ZM78.9954 20.88C77.2434 20.88 75.7794 19.464 75.7794 17.688C75.7794 15.864 77.2434 14.448 78.9954 14.448C80.7954 14.448 82.2114 15.864 82.2114 17.688C82.2114 19.464 80.7954 20.88 78.9954 20.88ZM98.4137 11.088C97.6457 11.088 96.9977 11.592 96.7817 12.288C95.7977 11.448 94.6217 11.088 93.3497 11.088C89.8937 11.088 86.9417 14.016 86.9417 17.64C86.9417 21.312 89.8937 24.24 93.3497 24.24C94.5737 24.24 95.7257 23.832 96.7097 22.896V23.064C96.7097 23.688 97.0217 24 97.6457 24H99.2297C99.8297 24 100.142 23.688 100.142 23.064V12.816C100.142 11.856 99.3737 11.088 98.4137 11.088ZM93.4937 20.88C91.7417 20.88 90.2777 19.464 90.2777 17.64C90.2777 15.864 91.7417 14.448 93.4937 14.448C95.2937 14.448 96.7097 15.864 96.7097 17.64C96.7097 19.464 95.2937 20.88 93.4937 20.88ZM107.597 21.384C108.629 21.384 108.965 20.976 108.965 20.448C108.965 19.992 108.677 19.68 108.101 19.44L106.157 18.672C103.901 17.784 102.797 16.392 102.797 14.856C102.797 12.96 104.453 11.088 107.693 11.088C109.421 11.088 110.909 11.4 111.845 12.24C112.133 12.504 112.301 12.912 112.301 13.272C112.301 14.04 111.725 14.568 110.981 14.568C110.261 14.568 109.829 14.352 109.253 14.184C108.677 14.016 108.125 13.944 107.741 13.944C106.901 13.944 106.493 14.28 106.493 14.856C106.493 15.264 106.709 15.6 107.357 15.84L109.637 16.776C111.989 17.712 112.637 19.056 112.637 20.328C112.637 22.392 110.981 24.24 107.501 24.24C105.749 24.24 104.189 23.808 103.109 23.16C102.509 22.8 102.197 22.32 102.197 21.84C102.197 21.072 102.773 20.472 103.517 20.472C104.237 20.472 104.621 20.784 105.437 21.024C106.061 21.216 106.949 21.384 107.597 21.384ZM119.155 21.384C120.187 21.384 120.523 20.976 120.523 20.448C120.523 19.992 120.235 19.68 119.659 19.44L117.715 18.672C115.459 17.784 114.355 16.392 114.355 14.856C114.355 12.96 116.011 11.088 119.251 11.088C120.979 11.088 122.467 11.4 123.403 12.24C123.691 12.504 123.859 12.912 123.859 13.272C123.859 14.04 123.283 14.568 122.539 14.568C121.819 14.568 121.387 14.352 120.811 14.184C120.235 14.016 119.683 13.944 119.299 13.944C118.459 13.944 118.051 14.28 118.051 14.856C118.051 15.264 118.267 15.6 118.915 15.84L121.195 16.776C123.547 17.712 124.195 19.056 124.195 20.328C124.195 22.392 122.539 24.24 119.059 24.24C117.307 24.24 115.747 23.808 114.667 23.16C114.067 22.8 113.755 22.32 113.755 21.84C113.755 21.072 114.331 20.472 115.075 20.472C115.795 20.472 116.179 20.784 116.995 21.024C117.619 21.216 118.507 21.384 119.155 21.384ZM143.408 11.088C142.616 11.088 141.944 11.568 141.608 12.432L139.352 18.528C138.608 16.512 137.864 14.496 137.096 12.456C136.76 11.568 136.064 11.088 135.296 11.088C134.528 11.088 133.832 11.568 133.496 12.456C132.728 14.496 131.984 16.512 131.24 18.528L128.984 12.432C128.648 11.568 127.976 11.088 127.184 11.088C126.128 11.088 125.336 11.976 125.336 12.936C125.336 13.296 125.456 13.608 125.552 13.848L129.488 23.016C129.848 23.832 130.472 24.24 131.24 24.24C132.008 24.24 132.632 23.832 132.992 23.016L135.296 17.664L137.6 23.016C137.96 23.832 138.584 24.24 139.352 24.24C140.12 24.24 140.744 23.832 141.104 23.016L145.04 13.848C145.136 13.608 145.256 13.296 145.256 12.936C145.256 11.976 144.464 11.088 143.408 11.088ZM153.083 24.24C156.707 24.24 159.635 21.312 159.635 17.64C159.635 14.016 156.707 11.088 153.083 11.088C149.459 11.088 146.531 14.016 146.531 17.64C146.531 21.312 149.459 24.24 153.083 24.24ZM153.083 20.88C151.331 20.88 149.867 19.464 149.867 17.64C149.867 15.864 151.331 14.448 153.083 14.448C154.883 14.448 156.299 15.864 156.299 17.64C156.299 19.464 154.883 20.88 153.083 20.88ZM169.321 14.496C170.305 14.496 170.977 13.704 170.977 12.84C170.977 12.12 170.569 11.52 169.921 11.256C169.513 11.088 169.057 11.088 168.481 11.088C167.089 11.088 166.009 11.232 164.737 12.024C162.841 13.176 161.521 15.312 161.521 17.76V23.328C161.521 23.76 161.761 24 162.193 24H164.281C164.713 24 164.953 23.76 164.953 23.328V17.736C164.953 15.792 166.465 14.448 168.121 14.448C168.577 14.448 168.913 14.496 169.321 14.496ZM182.218 5.856C181.282 5.856 180.514 6.528 180.514 7.536V12.144C179.578 11.424 178.522 11.088 177.37 11.088C173.746 11.088 170.818 14.016 170.818 17.64C170.818 21.312 173.746 24.24 177.37 24.24C180.994 24.24 183.946 21.336 183.946 17.448V7.536C183.946 6.528 183.178 5.856 182.218 5.856ZM177.298 20.88C175.498 20.88 174.082 19.464 174.082 17.64C174.082 15.864 175.498 14.448 177.298 14.448C179.05 14.448 180.514 15.864 180.514 17.64C180.514 19.464 179.05 20.88 177.298 20.88Z" fill="#2C2B31"/>
<path d="M109.288 89.5125L143 110.825V67.3L109.288 89.5125Z" fill="#2CD5C4"/>
<path d="M43 67.3V110.825L76.7125 89.5125L43 67.3Z" fill="#2CD5C4"/>
<path d="M136.75 54.625H49.25C46.1312 54.625 43.6562 56.95 43.1875 59.9438L93 92.7625L142.812 59.9438C142.344 56.95 139.869 54.625 136.75 54.625Z" fill="#2CD5C4"/>
<path d="M103.562 93.2875L94.7187 99.1125C94.1937 99.4562 93.6 99.625 93 99.625C92.4 99.625 91.8062 99.4562 91.2812 99.1125L82.4375 93.2812L43.2 118.1C43.6812 121.069 46.1437 123.375 49.25 123.375H136.75C139.856 123.375 142.319 121.069 142.8 118.1L103.562 93.2875Z" fill="#2CD5C4"/>
</svg>
