<svg width="184" height="116" viewBox="0 0 184 116" fill="none" xmlns="http://www.w3.org/2000/svg">
<circle cx="7" cy="7" r="7" fill="white" fill-opacity="0.4"/>
<circle cx="75" cy="7" r="7" fill="white" fill-opacity="0.4"/>
<circle cx="143" cy="7" r="7" fill="white" fill-opacity="0.4"/>
<circle cx="41" cy="7" r="7" fill="white" fill-opacity="0.4"/>
<circle cx="109" cy="7" r="7" fill="white" fill-opacity="0.4"/>
<circle cx="177" cy="7" r="7" fill="white" fill-opacity="0.4"/>
<circle cx="7" cy="41" r="7" fill="white" fill-opacity="0.4"/>
<circle cx="75" cy="41" r="7" fill="white" fill-opacity="0.4"/>
<circle cx="143" cy="41" r="7" fill="white" fill-opacity="0.4"/>
<circle cx="41" cy="41" r="7" fill="white" fill-opacity="0.4"/>
<circle cx="109" cy="41" r="7" fill="white" fill-opacity="0.4"/>
<circle cx="177" cy="41" r="7" fill="white" fill-opacity="0.4"/>
<circle cx="7" cy="75" r="7" fill="white" fill-opacity="0.4"/>
<circle cx="75" cy="75" r="7" fill="white" fill-opacity="0.4"/>
<circle cx="143" cy="75" r="7" fill="white" fill-opacity="0.4"/>
<circle cx="41" cy="75" r="7" fill="white" fill-opacity="0.4"/>
<circle cx="109" cy="75" r="7" fill="white" fill-opacity="0.4"/>
<circle cx="177" cy="75" r="7" fill="white" fill-opacity="0.4"/>
<circle cx="7" cy="109" r="7" fill="white" fill-opacity="0.4"/>
<circle cx="75" cy="109" r="7" fill="white" fill-opacity="0.4"/>
<circle cx="143" cy="109" r="7" fill="white" fill-opacity="0.4"/>
<circle cx="41" cy="109" r="7" fill="white" fill-opacity="0.4"/>
<circle cx="109" cy="109" r="7" fill="white" fill-opacity="0.4"/>
<circle cx="177" cy="109" r="7" fill="white" fill-opacity="0.4"/>
</svg>
