<svg width="184" height="117" viewBox="0 0 184 117" fill="none" xmlns="http://www.w3.org/2000/svg">
<g opacity="0.15">
<circle cx="7" cy="7.06445" r="7" fill="#2F302E"/>
<circle cx="75" cy="7.06445" r="7" fill="#2F302E"/>
<circle cx="143" cy="7.06445" r="7" fill="#2F302E"/>
<circle cx="41" cy="7.06445" r="7" fill="#2F302E"/>
<circle cx="109" cy="7.06445" r="7" fill="#2F302E"/>
<circle cx="177" cy="7.06445" r="7" fill="#2F302E"/>
<circle cx="7" cy="41.0645" r="7" fill="#2F302E"/>
<circle cx="75" cy="41.0645" r="7" fill="#2F302E"/>
<circle cx="143" cy="41.0645" r="7" fill="#2F302E"/>
<circle cx="41" cy="41.0645" r="7" fill="#2F302E"/>
<circle cx="109" cy="41.0645" r="7" fill="#2F302E"/>
<circle cx="177" cy="41.0645" r="7" fill="#2F302E"/>
<circle cx="7" cy="75.0645" r="7" fill="#2F302E"/>
<circle cx="75" cy="75.0645" r="7" fill="#2F302E"/>
<circle cx="143" cy="75.0645" r="7" fill="#2F302E"/>
<circle cx="41" cy="75.0645" r="7" fill="#2F302E"/>
<circle cx="109" cy="75.0645" r="7" fill="#2F302E"/>
<circle cx="177" cy="75.0645" r="7" fill="#2F302E"/>
<circle cx="7" cy="109.064" r="7" fill="#2F302E"/>
<circle cx="75" cy="109.064" r="7" fill="#2F302E"/>
<circle cx="143" cy="109.064" r="7" fill="#2F302E"/>
<circle cx="41" cy="109.064" r="7" fill="#2F302E"/>
<circle cx="109" cy="109.064" r="7" fill="#2F302E"/>
<circle cx="177" cy="109.064" r="7" fill="#2F302E"/>
</g>
</svg>
