<svg width="207" height="107" viewBox="0 0 207 107" fill="none" xmlns="http://www.w3.org/2000/svg">
<path d="M9.94725 89.4H12.0893V96.618C12.0893 97.542 11.9633 98.352 11.7113 99.048C11.4593 99.744 11.1053 100.326 10.6493 100.794C10.1933 101.262 9.64125 101.616 8.99325 101.856C8.35725 102.084 7.64325 102.198 6.85125 102.198C6.07125 102.198 5.35725 102.084 4.70925 101.856C4.07325 101.616 3.52725 101.268 3.07125 100.812C2.61525 100.344 2.26125 99.768 2.00925 99.084C1.75725 98.4 1.63125 97.614 1.63125 96.726V89.4H3.77325V96.636C3.77325 97.044 3.80925 97.458 3.88125 97.878C3.96525 98.286 4.12125 98.658 4.34925 98.994C4.57725 99.33 4.89525 99.606 5.30325 99.822C5.71125 100.026 6.23925 100.128 6.88725 100.128C7.51125 100.128 8.02125 100.02 8.41725 99.804C8.82525 99.576 9.13725 99.3 9.35325 98.976C9.58125 98.64 9.73725 98.274 9.82125 97.878C9.90525 97.47 9.94725 97.086 9.94725 96.726V89.4ZM14.5453 97.374C14.5453 96.714 14.6713 96.09 14.9233 95.502C15.1753 94.914 15.5173 94.398 15.9493 93.954C16.3933 93.51 16.9033 93.162 17.4793 92.91C18.0673 92.658 18.6973 92.532 19.3693 92.532C20.0413 92.532 20.6713 92.658 21.2593 92.91C21.8473 93.162 22.3633 93.51 22.8073 93.954C23.2513 94.398 23.5993 94.914 23.8513 95.502C24.1033 96.09 24.2293 96.714 24.2293 97.374C24.2293 98.046 24.1033 98.676 23.8513 99.264C23.5993 99.852 23.2513 100.368 22.8073 100.812C22.3633 101.256 21.8473 101.604 21.2593 101.856C20.6713 102.108 20.0413 102.234 19.3693 102.234C18.8413 102.234 18.3193 102.108 17.8033 101.856C17.2873 101.592 16.8853 101.25 16.5973 100.83V106.23H14.5273L14.5453 97.374ZM16.5973 97.374C16.5973 97.806 16.6693 98.196 16.8133 98.544C16.9573 98.892 17.1553 99.186 17.4073 99.426C17.6593 99.666 17.9533 99.852 18.2893 99.984C18.6253 100.104 18.9853 100.164 19.3693 100.164C19.7533 100.164 20.1133 100.092 20.4493 99.948C20.7973 99.804 21.0973 99.606 21.3493 99.354C21.6013 99.102 21.7993 98.808 21.9433 98.472C22.0873 98.124 22.1593 97.758 22.1593 97.374C22.1593 96.99 22.0873 96.63 21.9433 96.294C21.7993 95.958 21.6013 95.664 21.3493 95.412C21.0973 95.16 20.7973 94.962 20.4493 94.818C20.1133 94.674 19.7533 94.602 19.3693 94.602C18.9853 94.602 18.6253 94.662 18.2893 94.782C17.9533 94.902 17.6593 95.082 17.4073 95.322C17.1553 95.55 16.9573 95.838 16.8133 96.186C16.6693 96.534 16.5973 96.93 16.5973 97.374ZM26.0234 88.86H28.1114V102H26.0234V88.86ZM29.6515 97.392C29.6515 96.72 29.7775 96.09 30.0295 95.502C30.2815 94.914 30.6295 94.398 31.0735 93.954C31.5175 93.51 32.0275 93.162 32.6035 92.91C33.1915 92.658 33.8215 92.532 34.4935 92.532C35.1655 92.532 35.7955 92.658 36.3835 92.91C36.9715 93.162 37.4875 93.51 37.9315 93.954C38.3755 94.398 38.7235 94.914 38.9755 95.502C39.2275 96.09 39.3535 96.72 39.3535 97.392C39.3535 98.064 39.2275 98.694 38.9755 99.282C38.7235 99.858 38.3755 100.368 37.9315 100.812C37.4875 101.256 36.9715 101.604 36.3835 101.856C35.7955 102.108 35.1655 102.234 34.4935 102.234C33.8215 102.234 33.1915 102.108 32.6035 101.856C32.0275 101.604 31.5175 101.256 31.0735 100.812C30.6295 100.368 30.2815 99.858 30.0295 99.282C29.7775 98.694 29.6515 98.064 29.6515 97.392ZM31.7215 97.392C31.7215 97.776 31.7935 98.136 31.9375 98.472C32.0815 98.808 32.2795 99.102 32.5315 99.354C32.7835 99.606 33.0775 99.804 33.4135 99.948C33.7495 100.092 34.1095 100.164 34.4935 100.164C34.8775 100.164 35.2375 100.092 35.5735 99.948C35.9215 99.804 36.2215 99.606 36.4735 99.354C36.7255 99.102 36.9235 98.808 37.0675 98.472C37.2115 98.136 37.2835 97.776 37.2835 97.392C37.2835 97.008 37.2115 96.648 37.0675 96.312C36.9235 95.964 36.7255 95.664 36.4735 95.412C36.2215 95.16 35.9215 94.962 35.5735 94.818C35.2375 94.674 34.8775 94.602 34.4935 94.602C34.1095 94.602 33.7495 94.674 33.4135 94.818C33.0775 94.962 32.7835 95.16 32.5315 95.412C32.2795 95.664 32.0815 95.964 31.9375 96.312C31.7935 96.648 31.7215 97.008 31.7215 97.392ZM48.0606 92.766H50.1126V102H48.0606V100.938C47.9166 101.13 47.7366 101.304 47.5206 101.46C47.3166 101.616 47.0886 101.754 46.8366 101.874C46.5846 101.982 46.3206 102.066 46.0446 102.126C45.7806 102.198 45.5166 102.234 45.2526 102.234C44.5806 102.234 43.9506 102.108 43.3626 101.856C42.7866 101.604 42.2766 101.256 41.8326 100.812C41.3886 100.368 41.0406 99.858 40.7886 99.282C40.5366 98.694 40.4106 98.064 40.4106 97.392C40.4106 96.72 40.5366 96.09 40.7886 95.502C41.0406 94.914 41.3886 94.398 41.8326 93.954C42.2766 93.51 42.7866 93.162 43.3626 92.91C43.9506 92.658 44.5806 92.532 45.2526 92.532C45.7806 92.532 46.2906 92.652 46.7826 92.892C47.2746 93.12 47.7006 93.468 48.0606 93.936V92.766ZM48.0606 97.392C48.0606 96.936 47.9826 96.534 47.8266 96.186C47.6826 95.838 47.4846 95.55 47.2326 95.322C46.9806 95.082 46.6806 94.902 46.3326 94.782C45.9966 94.662 45.6366 94.602 45.2526 94.602C44.8686 94.602 44.5086 94.674 44.1726 94.818C43.8366 94.962 43.5426 95.16 43.2906 95.412C43.0386 95.664 42.8406 95.964 42.6966 96.312C42.5526 96.648 42.4806 97.008 42.4806 97.392C42.4806 97.776 42.5526 98.136 42.6966 98.472C42.8406 98.808 43.0386 99.102 43.2906 99.354C43.5426 99.606 43.8366 99.804 44.1726 99.948C44.5086 100.092 44.8686 100.164 45.2526 100.164C45.6366 100.164 45.9966 100.11 46.3326 100.002C46.6806 99.882 46.9806 99.708 47.2326 99.48C47.4846 99.24 47.6826 98.946 47.8266 98.598C47.9826 98.25 48.0606 97.848 48.0606 97.392ZM61.3797 97.392C61.3797 98.064 61.2537 98.694 61.0017 99.282C60.7497 99.858 60.4017 100.368 59.9577 100.812C59.5257 101.256 59.0157 101.604 58.4277 101.856C57.8397 102.108 57.2157 102.234 56.5557 102.234C55.8837 102.234 55.2537 102.108 54.6657 101.856C54.0777 101.604 53.5617 101.256 53.1177 100.812C52.6737 100.368 52.3257 99.858 52.0737 99.282C51.8217 98.694 51.6957 98.064 51.6957 97.392C51.6957 96.72 51.8217 96.09 52.0737 95.502C52.3257 94.914 52.6737 94.398 53.1177 93.954C53.5617 93.51 54.0777 93.162 54.6657 92.91C55.2537 92.658 55.8837 92.532 56.5557 92.532C57.0837 92.532 57.6057 92.664 58.1217 92.928C58.6377 93.18 59.0397 93.516 59.3277 93.936V88.86H61.3977L61.3797 97.392ZM59.3277 97.392C59.3277 96.96 59.2557 96.57 59.1117 96.222C58.9677 95.874 58.7697 95.58 58.5177 95.34C58.2657 95.1 57.9717 94.92 57.6357 94.8C57.2997 94.668 56.9397 94.602 56.5557 94.602C56.1717 94.602 55.8057 94.674 55.4577 94.818C55.1217 94.962 54.8277 95.16 54.5757 95.412C54.3237 95.664 54.1257 95.964 53.9817 96.312C53.8377 96.648 53.7657 97.008 53.7657 97.392C53.7657 97.776 53.8377 98.136 53.9817 98.472C54.1257 98.808 54.3237 99.102 54.5757 99.354C54.8277 99.606 55.1217 99.804 55.4577 99.948C55.8057 100.092 56.1717 100.164 56.5557 100.164C56.9397 100.164 57.2997 100.104 57.6357 99.984C57.9717 99.864 58.2657 99.69 58.5177 99.462C58.7697 99.222 58.9677 98.928 59.1117 98.58C59.2557 98.232 59.3277 97.836 59.3277 97.392ZM69.8829 92.748V92.226C69.8589 91.686 69.9489 91.212 70.1529 90.804C70.3569 90.384 70.6389 90.036 70.9989 89.76C71.3589 89.472 71.7729 89.256 72.2409 89.112C72.7209 88.956 73.2249 88.878 73.7529 88.878H74.0049V90.876H73.7529C73.4169 90.876 73.1349 90.9 72.9069 90.948C72.6789 90.996 72.4929 91.092 72.3489 91.236C72.2169 91.368 72.1209 91.554 72.0609 91.794C72.0009 92.022 71.9709 92.316 71.9709 92.676V92.748H74.0049V94.782H71.9709V102H69.8829V94.782H68.9829V92.748H69.8829ZM74.6339 97.392C74.6339 96.72 74.7599 96.09 75.0119 95.502C75.2639 94.914 75.6119 94.398 76.0559 93.954C76.4999 93.51 77.0099 93.162 77.5859 92.91C78.1739 92.658 78.8039 92.532 79.4759 92.532C80.1479 92.532 80.7779 92.658 81.3659 92.91C81.9539 93.162 82.4699 93.51 82.9139 93.954C83.3579 94.398 83.7059 94.914 83.9579 95.502C84.2099 96.09 84.3359 96.72 84.3359 97.392C84.3359 98.064 84.2099 98.694 83.9579 99.282C83.7059 99.858 83.3579 100.368 82.9139 100.812C82.4699 101.256 81.9539 101.604 81.3659 101.856C80.7779 102.108 80.1479 102.234 79.4759 102.234C78.8039 102.234 78.1739 102.108 77.5859 101.856C77.0099 101.604 76.4999 101.256 76.0559 100.812C75.6119 100.368 75.2639 99.858 75.0119 99.282C74.7599 98.694 74.6339 98.064 74.6339 97.392ZM76.7039 97.392C76.7039 97.776 76.7759 98.136 76.9199 98.472C77.0639 98.808 77.2619 99.102 77.5139 99.354C77.7659 99.606 78.0599 99.804 78.3959 99.948C78.7319 100.092 79.0919 100.164 79.4759 100.164C79.8599 100.164 80.2199 100.092 80.5559 99.948C80.9039 99.804 81.2039 99.606 81.4559 99.354C81.7079 99.102 81.9059 98.808 82.0499 98.472C82.1939 98.136 82.2659 97.776 82.2659 97.392C82.2659 97.008 82.1939 96.648 82.0499 96.312C81.9059 95.964 81.7079 95.664 81.4559 95.412C81.2039 95.16 80.9039 94.962 80.5559 94.818C80.2199 94.674 79.8599 94.602 79.4759 94.602C79.0919 94.602 78.7319 94.674 78.3959 94.818C78.0599 94.962 77.7659 95.16 77.5139 95.412C77.2619 95.664 77.0639 95.964 76.9199 96.312C76.7759 96.648 76.7039 97.008 76.7039 97.392ZM90.0667 94.782H88.5367V98.184C88.5367 98.484 88.5547 98.742 88.5907 98.958C88.6267 99.174 88.6987 99.354 88.8067 99.498C88.9147 99.63 89.0707 99.732 89.2747 99.804C89.4907 99.864 89.7727 99.894 90.1207 99.894H90.2107V102H89.7607C89.1487 102 88.6267 101.928 88.1947 101.784C87.7627 101.628 87.4147 101.406 87.1507 101.118C86.8867 100.83 86.6947 100.482 86.5747 100.074C86.4547 99.654 86.3947 99.18 86.3947 98.652V94.782H85.1527V92.748H86.3947V89.4H88.5367V92.748H90.0667V94.782ZM91.0167 97.392C91.0167 96.72 91.1427 96.09 91.3947 95.502C91.6467 94.914 91.9947 94.398 92.4387 93.954C92.8827 93.51 93.3927 93.162 93.9687 92.91C94.5567 92.658 95.1867 92.532 95.8587 92.532C96.5307 92.532 97.1607 92.658 97.7487 92.91C98.3367 93.162 98.8527 93.51 99.2967 93.954C99.7407 94.398 100.089 94.914 100.341 95.502C100.593 96.09 100.719 96.72 100.719 97.392C100.719 98.064 100.593 98.694 100.341 99.282C100.089 99.858 99.7407 100.368 99.2967 100.812C98.8527 101.256 98.3367 101.604 97.7487 101.856C97.1607 102.108 96.5307 102.234 95.8587 102.234C95.1867 102.234 94.5567 102.108 93.9687 101.856C93.3927 101.604 92.8827 101.256 92.4387 100.812C91.9947 100.368 91.6467 99.858 91.3947 99.282C91.1427 98.694 91.0167 98.064 91.0167 97.392ZM93.0867 97.392C93.0867 97.776 93.1587 98.136 93.3027 98.472C93.4467 98.808 93.6447 99.102 93.8967 99.354C94.1487 99.606 94.4427 99.804 94.7787 99.948C95.1147 100.092 95.4747 100.164 95.8587 100.164C96.2427 100.164 96.6027 100.092 96.9387 99.948C97.2867 99.804 97.5867 99.606 97.8387 99.354C98.0907 99.102 98.2887 98.808 98.4327 98.472C98.5767 98.136 98.6487 97.776 98.6487 97.392C98.6487 97.008 98.5767 96.648 98.4327 96.312C98.2887 95.964 98.0907 95.664 97.8387 95.412C97.5867 95.16 97.2867 94.962 96.9387 94.818C96.6027 94.674 96.2427 94.602 95.8587 94.602C95.4747 94.602 95.1147 94.674 94.7787 94.818C94.4427 94.962 94.1487 95.16 93.8967 95.412C93.6447 95.664 93.4467 95.964 93.3027 96.312C93.1587 96.648 93.0867 97.008 93.0867 97.392ZM117.209 91.974L113.015 96.348L117.569 102H114.815L111.611 97.878L110.729 98.796V102H108.641V88.86H110.729V95.736L114.329 91.974H117.209ZM125.984 92.766H128.036V102H125.984V100.938C125.84 101.13 125.66 101.304 125.444 101.46C125.24 101.616 125.012 101.754 124.76 101.874C124.508 101.982 124.244 102.066 123.968 102.126C123.704 102.198 123.44 102.234 123.176 102.234C122.504 102.234 121.874 102.108 121.286 101.856C120.71 101.604 120.2 101.256 119.756 100.812C119.312 100.368 118.964 99.858 118.712 99.282C118.46 98.694 118.334 98.064 118.334 97.392C118.334 96.72 118.46 96.09 118.712 95.502C118.964 94.914 119.312 94.398 119.756 93.954C120.2 93.51 120.71 93.162 121.286 92.91C121.874 92.658 122.504 92.532 123.176 92.532C123.704 92.532 124.214 92.652 124.706 92.892C125.198 93.12 125.624 93.468 125.984 93.936V92.766ZM125.984 97.392C125.984 96.936 125.906 96.534 125.75 96.186C125.606 95.838 125.408 95.55 125.156 95.322C124.904 95.082 124.604 94.902 124.256 94.782C123.92 94.662 123.56 94.602 123.176 94.602C122.792 94.602 122.432 94.674 122.096 94.818C121.76 94.962 121.466 95.16 121.214 95.412C120.962 95.664 120.764 95.964 120.62 96.312C120.476 96.648 120.404 97.008 120.404 97.392C120.404 97.776 120.476 98.136 120.62 98.472C120.764 98.808 120.962 99.102 121.214 99.354C121.466 99.606 121.76 99.804 122.096 99.948C122.432 100.092 122.792 100.164 123.176 100.164C123.56 100.164 123.92 100.11 124.256 100.002C124.604 99.882 124.904 99.708 125.156 99.48C125.408 99.24 125.606 98.946 125.75 98.598C125.906 98.25 125.984 97.848 125.984 97.392ZM130.191 92.766H132.279V93.486C132.591 93.21 132.897 92.988 133.197 92.82C133.509 92.64 133.899 92.55 134.367 92.55C135.111 92.55 135.735 92.694 136.239 92.982C136.743 93.258 137.151 93.648 137.463 94.152C137.799 93.732 138.189 93.36 138.633 93.036C139.077 92.712 139.599 92.55 140.199 92.55C140.859 92.55 141.429 92.664 141.909 92.892C142.401 93.12 142.803 93.438 143.115 93.846C143.439 94.242 143.679 94.716 143.835 95.268C143.991 95.808 144.069 96.402 144.069 97.05V102H141.981V97.05C141.981 96.126 141.837 95.472 141.549 95.088C141.261 94.692 140.793 94.494 140.145 94.494C139.737 94.494 139.371 94.56 139.047 94.692C138.735 94.812 138.447 94.98 138.183 95.196V97.05V102H136.095V97.05C136.095 96.126 135.957 95.472 135.681 95.088C135.417 94.692 134.961 94.494 134.313 94.494C133.857 94.494 133.473 94.566 133.161 94.71C132.861 94.854 132.567 95.064 132.279 95.34V102H130.191V92.766ZM154.503 102H152.415V101.28C152.103 101.556 151.755 101.784 151.371 101.964C150.987 102.132 150.561 102.216 150.093 102.216C149.433 102.216 148.851 102.102 148.347 101.874C147.843 101.646 147.417 101.334 147.069 100.938C146.733 100.53 146.475 100.056 146.295 99.516C146.127 98.964 146.043 98.364 146.043 97.716V92.766H148.131V97.716C148.131 98.64 148.305 99.3 148.653 99.696C149.001 100.08 149.499 100.272 150.147 100.272C150.603 100.272 151.023 100.2 151.407 100.056C151.791 99.912 152.127 99.702 152.415 99.426V92.766H154.503V102ZM172.157 97.392C172.157 98.064 172.031 98.694 171.779 99.282C171.527 99.858 171.179 100.368 170.735 100.812C170.303 101.256 169.793 101.604 169.205 101.856C168.617 102.108 167.993 102.234 167.333 102.234C166.661 102.234 166.031 102.108 165.443 101.856C164.855 101.604 164.339 101.256 163.895 100.812C163.451 100.368 163.103 99.858 162.851 99.282C162.599 98.694 162.473 98.064 162.473 97.392C162.473 96.72 162.599 96.09 162.851 95.502C163.103 94.914 163.451 94.398 163.895 93.954C164.339 93.51 164.855 93.162 165.443 92.91C166.031 92.658 166.661 92.532 167.333 92.532C167.861 92.532 168.383 92.664 168.899 92.928C169.415 93.18 169.817 93.516 170.105 93.936V88.86H172.175L172.157 97.392ZM170.105 97.392C170.105 96.96 170.033 96.57 169.889 96.222C169.745 95.874 169.547 95.58 169.295 95.34C169.043 95.1 168.749 94.92 168.413 94.8C168.077 94.668 167.717 94.602 167.333 94.602C166.949 94.602 166.583 94.674 166.235 94.818C165.899 94.962 165.605 95.16 165.353 95.412C165.101 95.664 164.903 95.964 164.759 96.312C164.615 96.648 164.543 97.008 164.543 97.392C164.543 97.776 164.615 98.136 164.759 98.472C164.903 98.808 165.101 99.102 165.353 99.354C165.605 99.606 165.899 99.804 166.235 99.948C166.583 100.092 166.949 100.164 167.333 100.164C167.717 100.164 168.077 100.104 168.413 99.984C168.749 99.864 169.043 99.69 169.295 99.462C169.547 99.222 169.745 98.928 169.889 98.58C170.033 98.232 170.105 97.836 170.105 97.392ZM174.356 92.766H176.444V102H174.356V92.766ZM174.014 90.318C174.014 89.97 174.14 89.67 174.392 89.418C174.656 89.154 174.962 89.022 175.31 89.022C175.658 89.022 175.958 89.154 176.21 89.418C176.474 89.67 176.606 89.97 176.606 90.318C176.606 90.666 176.474 90.972 176.21 91.236C175.958 91.488 175.658 91.614 175.31 91.614C174.962 91.614 174.656 91.488 174.392 91.236C174.14 90.972 174.014 90.666 174.014 90.318ZM179.48 99.354C179.732 99.51 179.966 99.642 180.182 99.75C180.41 99.858 180.638 99.948 180.866 100.02C181.094 100.092 181.328 100.146 181.568 100.182C181.82 100.206 182.102 100.218 182.414 100.218C182.882 100.218 183.248 100.158 183.512 100.038C183.776 99.918 183.908 99.738 183.908 99.498V99.462C183.908 99.126 183.734 98.862 183.386 98.67C183.038 98.466 182.558 98.274 181.946 98.094C181.478 97.962 181.04 97.818 180.632 97.662C180.224 97.506 179.864 97.32 179.552 97.104C179.252 96.888 179.012 96.63 178.832 96.33C178.664 96.03 178.58 95.664 178.58 95.232V95.196C178.58 94.8 178.682 94.44 178.886 94.116C179.102 93.78 179.378 93.498 179.714 93.27C180.062 93.03 180.458 92.85 180.902 92.73C181.346 92.598 181.796 92.532 182.252 92.532H182.288C182.792 92.532 183.344 92.604 183.944 92.748C184.556 92.88 185.144 93.084 185.708 93.36L184.826 95.088C184.37 94.86 183.944 94.698 183.548 94.602C183.164 94.494 182.72 94.44 182.216 94.44C181.94 94.44 181.718 94.458 181.55 94.494C181.382 94.53 181.25 94.578 181.154 94.638C181.058 94.686 180.992 94.752 180.956 94.836C180.932 94.908 180.92 94.98 180.92 95.052V95.088C180.92 95.244 180.962 95.376 181.046 95.484C181.142 95.58 181.268 95.67 181.424 95.754C181.592 95.826 181.796 95.904 182.036 95.988C182.276 96.06 182.552 96.15 182.864 96.258C183.344 96.426 183.782 96.6 184.178 96.78C184.586 96.96 184.934 97.17 185.222 97.41C185.51 97.65 185.732 97.926 185.888 98.238C186.056 98.538 186.14 98.898 186.14 99.318V99.354C186.14 99.798 186.026 100.194 185.798 100.542C185.582 100.89 185.294 101.19 184.934 101.442C184.574 101.682 184.166 101.868 183.71 102C183.266 102.12 182.81 102.18 182.342 102.18C182.054 102.18 181.736 102.156 181.388 102.108C181.052 102.06 180.704 101.988 180.344 101.892C179.996 101.796 179.642 101.676 179.282 101.532C178.934 101.388 178.61 101.22 178.31 101.028L179.48 99.354ZM188.014 92.766H190.102V102H188.014V92.766ZM187.672 90.318C187.672 89.97 187.798 89.67 188.05 89.418C188.314 89.154 188.62 89.022 188.968 89.022C189.316 89.022 189.616 89.154 189.868 89.418C190.132 89.67 190.264 89.97 190.264 90.318C190.264 90.666 190.132 90.972 189.868 91.236C189.616 91.488 189.316 91.614 188.968 91.614C188.62 91.614 188.314 91.488 188.05 91.236C187.798 90.972 187.672 90.666 187.672 90.318ZM192.594 92.766H194.682V93.486C194.994 93.21 195.342 92.988 195.726 92.82C196.11 92.64 196.536 92.55 197.004 92.55C197.664 92.55 198.246 92.664 198.75 92.892C199.254 93.12 199.674 93.438 200.01 93.846C200.358 94.242 200.616 94.716 200.784 95.268C200.964 95.808 201.054 96.402 201.054 97.05V102H198.966V97.05C198.966 96.126 198.792 95.472 198.444 95.088C198.096 94.692 197.598 94.494 196.95 94.494C196.038 94.494 195.282 94.776 194.682 95.34V102H192.594V92.766ZM203.395 92.766H205.483V102H203.395V92.766ZM203.053 90.318C203.053 89.97 203.179 89.67 203.431 89.418C203.695 89.154 204.001 89.022 204.349 89.022C204.697 89.022 204.997 89.154 205.249 89.418C205.513 89.67 205.645 89.97 205.645 90.318C205.645 90.666 205.513 90.972 205.249 91.236C204.997 91.488 204.697 91.614 204.349 91.614C204.001 91.614 203.695 91.488 203.431 91.236C203.179 90.972 203.053 90.666 203.053 90.318Z" fill="#2F302E"/>
<path d="M112.75 23.3334H112.779" stroke="#2F302E" stroke-width="5" stroke-linecap="round" stroke-linejoin="round"/>
<path d="M118.583 11.6666H89.4163C84.5838 11.6666 80.6663 15.5841 80.6663 20.4166V49.5833C80.6663 54.4158 84.5838 58.3333 89.4163 58.3333H118.583C123.415 58.3333 127.333 54.4158 127.333 49.5833V20.4166C127.333 15.5841 123.415 11.6666 118.583 11.6666Z" stroke="#2F302E" stroke-width="5" stroke-linecap="round" stroke-linejoin="round"/>
<path d="M80.6663 43.7499L92.3329 32.0832C93.6631 30.8032 95.172 30.1294 96.7079 30.1294C98.2439 30.1294 99.7528 30.8032 101.083 32.0832L115.666 46.6665" stroke="#2F302E" stroke-width="5" stroke-linecap="round" stroke-linejoin="round"/>
<path d="M109.834 40.8334L112.75 37.9167C114.081 36.6367 115.589 35.9629 117.125 35.9629C118.661 35.9629 120.17 36.6367 121.5 37.9167L127.334 43.75" stroke="#2F302E" stroke-width="5" stroke-linecap="round" stroke-linejoin="round"/>
</svg>
